<svg width="180" height="24" viewBox="0 0 180 24" fill="none" xmlns="http://www.w3.org/2000/svg" role="img" aria-label="Stackryze">
  <title>Stackryze</title>
  <!--
    Stackryze docs lockup (dark).
    Mark: bi-stack — three rings, identical to the navbar <Logo>.
    Wordmark: "Stackryze" in Geist.
    Path data is duplicated here because Mintlify docs serve this
    asset as a static .svg file and cannot import from a .ts module.
    Keep in sync with src/components/ui/logo-paths.ts in the web app.
  -->
  <!-- bi-stack mark (16x16) — Layer 1 bottom, Layer 2 middle, Layer 3 top -->
  <g transform="translate(2 4)" fill="#FFFFFF">
    <path d="m14.12 10.163 1.715.858c.22.11.22.424 0 .534L8.267 15.34a.6.6 0 0 1-.534 0L.165 11.555a.299.299 0 0 1 0-.534l1.716-.858 5.317 2.659c.505.252 1.1.252 1.604 0l5.317-2.66Z"/>
    <path d="m14.12 6.576 1.715.858c.22.11.22.424 0 .534l-7.568 3.784a.6.6 0 0 1-.534 0L.165 7.968a.299.299 0 0 1 0-.534l1.716-.858 5.317 2.659c.505.252 1.1.252 1.604 0Z" opacity="0.72"/>
    <path d="M7.733.063a.6.6 0 0 1 .534 0l7.568 3.784a.3.3 0 0 1 0 .535L8.267 8.165a.6.6 0 0 1-.534 0L.165 4.382a.299.299 0 0 1 0-.535Z" opacity="0.85"/>
  </g>
  <!-- Wordmark -->
  <text x="24" y="18" font-family="Geist, Inter, ui-sans-serif, system-ui, -apple-system, sans-serif" font-size="15" font-weight="500" letter-spacing="-0.4" fill="#FFFFFF">Stackryze</text>
</svg>